#Comment line ignore any data following # character 
#Hierarchical Translation and Rotation (.htr) file 
[Header]	
#Header keywords are followed by a single value 
FileType HTR		#Single word string
DataType HTRS		#Translation followed by rotation and scale data
FileVersion 1		#integer
NumSegments 84		#integer
NumFrames 2		#integer
DataFrameRate 30		#integer, data frame rate in this file
EulerRotationOrder ZYX
CalibrationUnits mm
RotationUnits Degrees
GlobalAxisofGravity Y
BoneLengthAxis Y
ScaleFactor 1.00
[SegmentNames&Hierarchy]
#CHILD	PARENT
MASTER GLOBAL
root MASTER
chest root
L_mid_tent01 root
R_mid_tent01 root
spine01 root
Bip01_Neck chest
L_humerus chest
R_humerus chest
weapon_bone chest
Bip01_Head Bip01_Neck
eye_left_bone Bip01_Head
eye_right_bone Bip01_Head
L_forearm L_humerus
L_front_hand L_forearm
L_weapon_bone L_forearm
L_front_hand01_01 L_front_hand
L_front_hand02_01 L_front_hand
L_front_hand03_01 L_front_hand
L_front_hand01_02 L_front_hand01_01
L_front_hand02_02 L_front_hand02_01
L_front_hand03_02 L_front_hand03_01
R_forearm R_humerus
R_front_hand R_forearm
R_weapon_bone R_forearm
R_front_hand01_01 R_front_hand
R_front_hand02_01 R_front_hand
R_front_hand03_01 R_front_hand
R_front_hand01_02 R_front_hand01_01
R_front_hand02_02 R_front_hand02_01
R_front_hand03_02 R_front_hand03_01
null_rope01_connect L_mid_tent01
Rope1_Seg01 null_rope01_connect
Rope1_Seg02 Rope1_Seg01
Rope1_Seg03 Rope1_Seg02
Rope1_Seg04 Rope1_Seg03
Rope1_Seg05 Rope1_Seg04
Rope1_Seg06 Rope1_Seg05
Rope1_Seg07 Rope1_Seg06
Rope1_Seg09 Rope1_Seg07
L_mid_hand01 Rope1_Seg09
L_mid_hand02 Rope1_Seg09
L_mid_hand03 Rope1_Seg09
null_rope02_connect R_mid_tent01
Rope2_Seg01 null_rope02_connect
Rope2_Seg02 Rope2_Seg01
Rope2_Seg03 Rope2_Seg02
Rope2_Seg04 Rope2_Seg03
Rope2_Seg05 Rope2_Seg04
Rope2_Seg06 Rope2_Seg05
Rope2_Seg07 Rope2_Seg06
Rope2_Seg09 Rope2_Seg07
R_mid_hand01 Rope2_Seg09
R_mid_hand02 Rope2_Seg09
R_mid_hand03 Rope2_Seg09
spine02 spine01
spine03 spine02
pelvis spine03
null_rope03_connect pelvis
null_rope04_connect pelvis
Rope3_Seg01 null_rope03_connect
Rope3_Seg02 Rope3_Seg01
Rope3_Seg03 Rope3_Seg02
Rope3_Seg04 Rope3_Seg03
Rope3_Seg05 Rope3_Seg04
Rope3_Seg06 Rope3_Seg05
Rope3_Seg07 Rope3_Seg06
Rope3_Seg08 Rope3_Seg07
Rope3_Seg09 Rope3_Seg08
R_rear_hand01 Rope3_Seg09
R_rear_hand02 Rope3_Seg09
R_rear_hand03 Rope3_Seg09
Rope4_Seg01 null_rope04_connect
Rope4_Seg02 Rope4_Seg01
Rope4_Seg03 Rope4_Seg02
Rope4_Seg04 Rope4_Seg03
Rope4_Seg05 Rope4_Seg04
Rope4_Seg06 Rope4_Seg05
Rope4_Seg07 Rope4_Seg06
Rope4_Seg08 Rope4_Seg07
Rope4_Seg09 Rope4_Seg08
L_rear_hand01 Rope4_Seg09
L_rear_hand02 Rope4_Seg09
L_rear_hand03 Rope4_Seg09
[BasePosition]
#SegmentName Tx, Ty, Tz, Rx, Ry, Rz, BoneLength
MASTER 0.000000 0.000000 0.000000 -90.000000 0.000000 0.000000 10.000000 
root 0.000000 0.000000 0.000000 0.000000 0.000000 0.000000 10.000000 
chest 0.000000 0.000000 0.000000 0.000000 0.000000 0.000000 10.000000 
L_mid_tent01 0.000000 0.000000 0.000000 0.000000 0.000000 0.000000 10.000000 
R_mid_tent01 0.000000 0.000000 0.000000 0.000000 0.000000 0.000000 10.000000 
spine01 0.000000 0.000000 0.000000 0.000000 0.000000 0.000000 10.000000 
Bip01_Neck 0.000000 0.000000 0.000000 0.000000 0.000000 0.000000 10.000000 
L_humerus 0.000000 0.000000 0.000000 0.000000 0.000000 0.000000 10.000000 
R_humerus 0.000000 0.000000 0.000000 0.000000 0.000000 0.000000 10.000000 
weapon_bone 0.000000 0.000000 0.000000 0.000000 0.000000 0.000000 10.000000 
Bip01_Head 0.000000 0.000000 0.000000 0.000000 0.000000 0.000000 10.000000 
eye_left_bone 0.000000 0.000000 0.000000 0.000000 0.000000 0.000000 10.000000 
eye_right_bone 0.000000 0.000000 0.000000 0.000000 0.000000 0.000000 10.000000 
L_forearm 0.000000 0.000000 0.000000 0.000000 0.000000 0.000000 10.000000 
L_front_hand 0.000000 0.000000 0.000000 0.000000 0.000000 0.000000 10.000000 
L_weapon_bone 0.000000 0.000000 0.000000 0.000000 0.000000 0.000000 10.000000 
L_front_hand01_01 0.000000 0.000000 0.000000 0.000000 0.000000 0.000000 10.000000 
L_front_hand02_01 0.000000 0.000000 0.000000 0.000000 0.000000 0.000000 10.000000 
L_front_hand03_01 0.000000 0.000000 0.000000 0.000000 0.000000 0.000000 10.000000 
L_front_hand01_02 0.000000 0.000000 0.000000 0.000000 0.000000 0.000000 10.000000 
L_front_hand02_02 0.000000 0.000000 0.000000 0.000000 0.000000 0.000000 10.000000 
L_front_hand03_02 0.000000 0.000000 0.000000 0.000000 0.000000 0.000000 10.000000 
R_forearm 0.000000 0.000000 0.000000 0.000000 0.000000 0.000000 10.000000 
R_front_hand 0.000000 0.000000 0.000000 0.000000 0.000000 0.000000 10.000000 
R_weapon_bone 0.000000 0.000000 0.000000 0.000000 0.000000 0.000000 10.000000 
R_front_hand01_01 0.000000 0.000000 0.000000 0.000000 0.000000 0.000000 10.000000 
R_front_hand02_01 0.000000 0.000000 0.000000 0.000000 0.000000 0.000000 10.000000 
R_front_hand03_01 0.000000 0.000000 0.000000 0.000000 0.000000 0.000000 10.000000 
R_front_hand01_02 0.000000 0.000000 0.000000 0.000000 0.000000 0.000000 10.000000 
R_front_hand02_02 0.000000 0.000000 0.000000 0.000000 0.000000 0.000000 10.000000 
R_front_hand03_02 0.000000 0.000000 0.000000 0.000000 0.000000 0.000000 10.000000 
null_rope01_connect 0.000000 0.000000 0.000000 0.000000 0.000000 0.000000 10.000000 
Rope1_Seg01 0.000000 0.000000 0.000000 0.000000 0.000000 0.000000 10.000000 
Rope1_Seg02 0.000000 0.000000 0.000000 0.000000 0.000000 0.000000 10.000000 
Rope1_Seg03 0.000000 0.000000 0.000000 0.000000 0.000000 0.000000 10.000000 
Rope1_Seg04 0.000000 0.000000 0.000000 0.000000 0.000000 0.000000 10.000000 
Rope1_Seg05 0.000000 0.000000 0.000000 0.000000 0.000000 0.000000 10.000000 
Rope1_Seg06 0.000000 0.000000 0.000000 0.000000 0.000000 0.000000 10.000000 
Rope1_Seg07 0.000000 0.000000 0.000000 0.000000 0.000000 0.000000 10.000000 
Rope1_Seg09 0.000000 0.000000 0.000000 0.000000 0.000000 0.000000 10.000000 
L_mid_hand01 0.000000 0.000000 0.000000 0.000000 0.000000 0.000000 10.000000 
L_mid_hand02 0.000000 0.000000 0.000000 0.000000 0.000000 0.000000 10.000000 
L_mid_hand03 0.000000 0.000000 0.000000 0.000000 0.000000 0.000000 10.000000 
null_rope02_connect 0.000000 0.000000 0.000000 0.000000 0.000000 0.000000 10.000000 
Rope2_Seg01 0.000000 0.000000 0.000000 0.000000 0.000000 0.000000 10.000000 
Rope2_Seg02 0.000000 0.000000 0.000000 0.000000 0.000000 0.000000 10.000000 
Rope2_Seg03 0.000000 0.000000 0.000000 0.000000 0.000000 0.000000 10.000000 
Rope2_Seg04 0.000000 0.000000 0.000000 0.000000 0.000000 0.000000 10.000000 
Rope2_Seg05 0.000000 0.000000 0.000000 0.000000 0.000000 0.000000 10.000000 
Rope2_Seg06 0.000000 0.000000 0.000000 0.000000 0.000000 0.000000 10.000000 
Rope2_Seg07 0.000000 0.000000 0.000000 0.000000 0.000000 0.000000 10.000000 
Rope2_Seg09 0.000000 0.000000 0.000000 0.000000 0.000000 0.000000 10.000000 
R_mid_hand01 0.000000 0.000000 0.000000 0.000000 0.000000 0.000000 10.000000 
R_mid_hand02 0.000000 0.000000 0.000000 0.000000 0.000000 0.000000 10.000000 
R_mid_hand03 0.000000 0.000000 0.000000 0.000000 0.000000 0.000000 10.000000 
spine02 0.000000 0.000000 0.000000 0.000000 0.000000 0.000000 10.000000 
spine03 0.000000 0.000000 0.000000 0.000000 0.000000 0.000000 10.000000 
pelvis 0.000000 0.000000 0.000000 0.000000 0.000000 0.000000 10.000000 
null_rope03_connect 0.000000 0.000000 0.000000 0.000000 0.000000 0.000000 10.000000 
null_rope04_connect 0.000000 0.000000 0.000000 0.000000 0.000000 0.000000 10.000000 
Rope3_Seg01 0.000000 0.000000 0.000000 0.000000 0.000000 0.000000 10.000000 
Rope3_Seg02 0.000000 0.000000 0.000000 0.000000 0.000000 0.000000 10.000000 
Rope3_Seg03 0.000000 0.000000 0.000000 0.000000 0.000000 0.000000 10.000000 
Rope3_Seg04 0.000000 0.000000 0.000000 0.000000 0.000000 0.000000 10.000000 
Rope3_Seg05 0.000000 0.000000 0.000000 0.000000 0.000000 0.000000 10.000000 
Rope3_Seg06 0.000000 0.000000 0.000000 0.000000 0.000000 0.000000 10.000000 
Rope3_Seg07 0.000000 0.000000 0.000000 0.000000 0.000000 0.000000 10.000000 
Rope3_Seg08 0.000000 0.000000 0.000000 0.000000 0.000000 0.000000 10.000000 
Rope3_Seg09 0.000000 0.000000 0.000000 0.000000 0.000000 0.000000 10.000000 
R_rear_hand01 0.000000 0.000000 0.000000 0.000000 0.000000 0.000000 10.000000 
R_rear_hand02 0.000000 0.000000 0.000000 0.000000 0.000000 0.000000 10.000000 
R_rear_hand03 0.000000 0.000000 0.000000 0.000000 0.000000 0.000000 10.000000 
Rope4_Seg01 0.000000 0.000000 0.000000 0.000000 0.000000 0.000000 10.000000 
Rope4_Seg02 0.000000 0.000000 0.000000 0.000000 0.000000 0.000000 10.000000 
Rope4_Seg03 0.000000 0.000000 0.000000 0.000000 0.000000 0.000000 10.000000 
Rope4_Seg04 0.000000 0.000000 0.000000 0.000000 0.000000 0.000000 10.000000 
Rope4_Seg05 0.000000 0.000000 0.000000 0.000000 0.000000 0.000000 10.000000 
Rope4_Seg06 0.000000 0.000000 0.000000 0.000000 0.000000 0.000000 10.000000 
Rope4_Seg07 0.000000 0.000000 0.000000 0.000000 0.000000 0.000000 10.000000 
Rope4_Seg08 0.000000 0.000000 0.000000 0.000000 0.000000 0.000000 10.000000 
Rope4_Seg09 0.000000 0.000000 0.000000 0.000000 0.000000 0.000000 10.000000 
L_rear_hand01 0.000000 0.000000 0.000000 0.000000 0.000000 0.000000 10.000000 
L_rear_hand02 0.000000 0.000000 0.000000 0.000000 0.000000 0.000000 10.000000 
L_rear_hand03 0.000000 0.000000 0.000000 0.000000 0.000000 0.000000 10.000000 
#Beginning of Data. Separated by tabs
#Fr	Tx	Ty	Tz	Rx	Ry	Rz	SF
[MASTER]
11 0.000000 0.000000 0.000000 0.001660 0.001660 0.001660 0.000000
12 0.000000 0.000000 0.000000 0.001660 0.001660 0.001660 0.000000
[root]
11 69.810303 -172.911621 2094.563477 -112.146065 -28.971283 -57.272438 2102.847656
12 31.034349 43.973717 1964.618652 -99.656975 -29.137072 -79.324989 1965.355835
[chest]
11 -84.512650 -34.090519 0.000000 -2.790898 -0.778113 175.766617 91.129311
12 -84.512650 -34.090519 0.000000 -2.807989 -7.035913 175.937180 91.129311
[L_mid_tent01]
11 27.299086 22.179363 -249.918655 -88.202942 45.525330 -31.393465 252.381653
12 27.299086 22.179359 -249.918655 -99.141609 51.982155 -41.114639 252.381653
[R_mid_tent01]
11 23.228794 24.509907 226.238495 79.931709 -46.930946 -167.631042 228.744751
12 23.228794 24.509907 226.238495 33.912315 -62.285614 -122.912865 228.744751
[spine01]
11 -0.361383 -0.195265 0.000000 0.001938 0.001324 21.316652 0.410763
12 -0.361383 -0.195265 0.000000 0.001938 0.001325 21.275146 0.410763
[Bip01_Neck]
11 165.484543 71.581718 0.000119 175.896118 1.177290 24.871183 180.302734
12 165.484543 71.581718 0.000119 175.896118 1.177290 24.871183 180.302734
[L_humerus]
11 -13.983130 -135.272980 -120.471481 -105.066803 62.474129 -7.785573 181.680161
12 -13.983130 -135.272980 -120.471481 -89.116562 28.492256 7.821485 181.680161
[R_humerus]
11 -13.983309 -135.273102 125.287651 134.803375 -39.512547 -5.813938 184.909012
12 -13.983309 -135.273102 125.287651 136.432159 -37.859665 -6.891707 184.909012
[weapon_bone]
11 235.964890 -300.705902 0.000000 0.000000 -89.951546 -128.212341 382.234833
12 235.964890 -300.705902 0.000000 0.000000 -89.951546 -128.212341 382.234833
[Bip01_Head]
11 239.366837 103.971863 3.576374 -21.085182 1.001936 -54.976379 260.996948
12 243.762802 98.201744 2.905043 -2.632489 2.233608 -56.393120 262.816162
[eye_left_bone]
11 31.803589 158.793640 -75.649376 -104.218590 -85.597984 4.718000 178.744843
12 32.040710 158.933792 -75.695076 -104.218590 -85.597984 4.718000 178.930984
[eye_right_bone]
11 42.776947 159.697784 53.026943 75.788536 -85.594551 4.713911 173.623459
12 42.985077 159.803467 52.992077 75.788536 -85.594551 4.713911 173.761414
[L_forearm]
11 322.776093 0.000000 -0.000119 0.000535 0.002285 -63.629662 322.776093
12 322.776093 0.000000 -0.000119 0.001139 0.002052 -31.949286 322.776093
[L_front_hand]
11 241.149185 -0.042021 -3.300071 -134.007813 4.588721 -6.260981 241.171753
12 241.149185 -0.042021 -3.300071 -97.323280 1.350824 4.102389 241.171753
[L_weapon_bone]
11 156.183838 0.000000 0.000000 0.000573 0.002276 -61.753387 156.183838
12 156.183838 0.000000 0.000000 0.000449 0.002304 -67.929413 156.183838
[L_front_hand01_01]
11 86.095154 20.947098 -0.655860 -0.334519 -0.500620 71.583473 88.609184
12 86.095154 20.947098 -0.655860 -0.328275 -0.502941 70.987244 88.609184
[L_front_hand02_01]
11 86.935165 -11.437475 24.513514 148.836060 -58.077797 -54.877121 91.046425
12 86.935165 -11.437475 24.513514 148.025055 -57.766182 -53.920364 91.046425
[L_front_hand03_01]
11 86.637497 -14.123976 -20.424902 -148.737564 56.292812 -56.544113 90.126129
12 86.637497 -14.123976 -20.424902 -147.982590 55.981445 -55.636463 90.126129
[L_front_hand01_02]
11 71.020905 -0.000179 0.000030 0.001534 0.001777 -8.378851 71.020905
12 71.020905 -0.000179 0.000030 0.001534 0.001777 -8.378850 71.020905
[L_front_hand02_02]
11 71.020927 -0.000119 0.000060 0.001534 0.001777 -8.378851 71.020927
12 71.020927 -0.000119 0.000060 0.001534 0.001777 -8.378850 71.020927
[L_front_hand03_02]
11 71.020905 -0.000060 0.000060 0.001534 0.001777 -8.378851 71.020905
12 71.020905 -0.000060 0.000060 0.001534 0.001777 -8.378850 71.020905
[R_forearm]
11 322.776428 -0.000060 0.000030 0.158005 -0.144459 -47.911385 322.776428
12 322.776428 -0.000060 0.000030 0.150102 -0.149930 -45.299610 322.776428
[R_front_hand]
11 238.847015 -0.006795 2.210259 -2.635298 -10.645461 -26.312506 238.857239
12 238.847015 -0.006795 2.210259 -2.635298 -10.645461 -26.312506 238.857239
[R_weapon_bone]
11 155.664093 0.002503 -0.000030 0.003487 0.001180 -90.988930 155.664078
12 155.664093 0.002503 -0.000030 0.003487 0.001180 -90.988930 155.664078
[R_front_hand01_01]
11 87.624611 14.231146 22.918642 -154.633499 -59.950619 61.746044 91.683487
12 87.624611 14.231146 22.918642 -154.633499 -59.950619 61.746044 91.683487
[R_front_hand02_01]
11 89.356956 14.367283 -19.491137 154.602661 58.302849 63.744389 92.579636
12 89.356956 14.367283 -19.491137 154.602661 58.302856 63.744389 92.579636
[R_front_hand03_01]
11 87.286232 -22.307278 -0.143439 0.162155 -0.423168 -75.767921 90.091743
12 87.286232 -22.307278 -0.143439 0.162155 -0.423168 -75.767906 90.091743
[R_front_hand01_02]
11 71.020905 0.000060 0.000119 0.001847 0.001448 13.808793 71.020905
12 71.020905 0.000060 0.000119 0.001922 0.001347 19.949331 71.020905
[R_front_hand02_02]
11 71.020844 -0.000030 -0.000119 0.001847 0.001448 13.808793 71.020836
12 71.020844 -0.000030 -0.000119 0.001922 0.001347 19.949331 71.020836
[R_front_hand03_02]
11 71.020905 0.000000 0.000030 0.001847 0.001448 13.808793 71.020905
12 71.020905 0.000000 0.000030 0.001922 0.001347 19.949331 71.020905
[null_rope01_connect]
11 328.732483 0.000000 -0.000238 -115.954880 -12.233148 -108.891953 328.732483
12 328.732483 0.000000 -0.000238 -115.331245 3.966730 -132.136887 328.732483
[Rope1_Seg01]
11 -0.000032 0.000026 0.000105 66.108162 -38.984207 -137.932327 0.000113
12 -0.000032 0.000025 0.000100 77.984543 -31.363922 -148.905441 0.000108
[Rope1_Seg02]
11 139.999863 -0.000179 0.000000 1.568141 -3.963196 -0.933546 139.999863
12 139.999863 -0.000179 0.000000 2.881894 -5.739133 -2.025220 139.999863
[Rope1_Seg03]
11 139.999924 0.000060 -0.000060 2.784918 -8.270840 -1.727470 139.999924
12 139.999924 0.000060 -0.000060 6.376972 -15.681434 -4.803106 139.999924
[Rope1_Seg04]
11 139.999924 -0.000060 -0.000119 3.395935 -39.689186 -2.118344 139.999924
12 139.999924 -0.000060 -0.000119 11.696271 -65.526321 -20.950590 139.999924
[Rope1_Seg05]
11 139.999832 0.000119 -0.000060 -15.918447 -58.995567 -13.432233 139.999832
12 139.999832 0.000119 -0.000060 -17.373528 -38.033798 -8.408171 139.999832
[Rope1_Seg06]
11 139.999954 0.000119 -0.000060 -6.694791 1.280266 -25.656908 139.999954
12 139.999954 0.000119 -0.000060 -2.514794 -1.833664 -3.565410 139.999954
[Rope1_Seg07]
11 139.999985 0.000060 0.000000 -1.181277 -1.879795 -12.140759 139.999985
12 139.999985 0.000060 0.000000 1.406170 4.967827 -1.863251 139.999985
[Rope1_Seg09]
11 121.602913 0.000119 -0.000089 -66.995407 -1.358592 0.847788 121.602913
12 121.602913 0.000119 -0.000089 -41.766853 -1.358031 0.848144 121.602913
[L_mid_hand01]
11 103.859421 1.038730 8.195221 104.361534 -2.082833 -1.067391 104.187431
12 103.859421 1.038730 8.195221 104.407768 -4.894536 -1.788017 104.187431
[L_mid_hand02]
11 105.572853 -4.139662 -10.864139 -135.761230 5.651539 -5.175817 106.211075
12 105.572853 -4.139662 -10.864139 -136.001450 7.671368 -7.276721 106.211075
[L_mid_hand03]
11 104.641464 17.579376 -3.913581 -18.760237 0.478582 5.313324 106.179977
12 104.641464 17.579376 -3.913581 -18.715752 1.412811 8.062191 106.179977
[null_rope02_connect]
11 328.732849 0.000179 -0.000119 -151.957596 0.554267 70.323112 328.732849
12 328.732849 0.000179 -0.000119 -157.604340 -17.377876 25.724852 328.732849
[Rope2_Seg01]
11 0.000095 0.000153 0.000024 -64.746300 20.558367 -14.930474 0.000182
12 0.000095 0.000153 0.000026 -54.802544 15.938149 -20.000170 0.000182
[Rope2_Seg02]
11 139.999741 -0.000060 -0.000119 -5.857635 -8.386215 7.944571 139.999756
12 139.999741 -0.000060 -0.000119 -16.934404 -11.375357 18.126188 139.999756
[Rope2_Seg03]
11 140.000107 0.000030 0.000000 -7.008624 -18.953543 15.673634 140.000107
12 140.000107 0.000030 0.000000 -9.632176 -24.063820 21.900812 140.000107
[Rope2_Seg04]
11 139.999802 0.000000 -0.000060 -6.715463 -27.694010 21.626707 139.999802
12 139.999802 0.000000 -0.000060 -3.487299 -19.974348 16.644650 139.999802
[Rope2_Seg05]
11 139.999985 -0.000060 0.000119 -2.230025 -23.945961 13.986818 139.999985
12 139.999985 -0.000060 0.000119 0.754156 -18.878269 20.875612 139.999985
[Rope2_Seg06]
11 139.999893 -0.000030 -0.000119 -0.752979 -18.220732 9.323792 139.999893
12 139.999893 -0.000030 -0.000119 5.361763 -10.300558 12.335485 139.999893
[Rope2_Seg07]
11 139.999893 0.000060 -0.000060 1.068078 -8.459958 4.704927 139.999893
12 139.999893 0.000060 -0.000060 4.977026 -4.459630 6.449956 139.999893
[Rope2_Seg09]
11 121.338966 0.000089 -0.000060 33.793236 -1.359788 -0.847141 121.338966
12 121.338966 0.000089 -0.000060 33.793236 -1.359788 -0.847141 121.338966
[R_mid_hand01]
11 104.680779 11.144459 -10.335981 -35.168285 34.192844 41.303879 105.778534
12 104.680779 11.144459 -10.335981 -22.898916 42.775772 60.849827 105.778534
[R_mid_hand02]
11 104.070427 2.443552 8.231699 69.057709 -46.053474 15.939553 104.424065
12 104.070427 2.443552 8.231699 58.317043 -61.818993 29.085112 104.424065
[R_mid_hand03]
11 106.028137 -11.221827 -5.996406 -170.748062 12.879352 -51.115482 106.788818
12 106.028137 -11.221827 -5.996406 -175.092896 15.051620 -68.999649 106.788818
[spine02]
11 129.756927 0.001550 0.000119 0.450452 -4.034917 -14.223920 129.756927
12 129.756927 0.001550 0.000119 0.442193 -4.035897 -14.128884 129.756927
[spine03]
11 78.614044 0.081587 -4.899015 2.166065 3.686004 20.616241 78.766579
12 78.614044 0.081582 -4.899015 2.175468 3.682448 20.757332 78.766579
[pelvis]
11 169.435242 0.051022 0.000000 -0.062094 -0.179671 15.125051 169.435257
12 169.435242 0.051022 0.000000 -0.062109 -0.179665 15.135032 169.435257
[null_rope03_connect]
11 -1.257226 -2.466202 137.391083 131.013992 -61.706135 -49.577320 137.418976
12 -1.257226 -2.466202 137.391083 138.889282 -80.300545 -62.076565 137.418976
[null_rope04_connect]
11 -1.259640 -2.480268 -137.844437 131.013992 -61.706135 -49.577320 137.872513
12 -1.259640 -2.480268 -137.844437 138.889282 -80.300545 -62.076565 137.872513
[Rope3_Seg01]
11 0.000000 0.000000 0.000000 -119.484573 35.462261 -53.733459 0.000000
12 0.000000 0.000000 0.000000 -121.404808 16.294950 -48.605904 0.000000
[Rope3_Seg02]
11 139.999924 -0.000119 0.000060 1.817528 -10.215912 0.906901 139.999924
12 139.999924 -0.000119 0.000060 6.447717 -15.264141 -2.862382 139.999924
[Rope3_Seg03]
11 139.999924 -0.000119 0.000119 3.888558 -14.610038 1.818051 139.999924
12 139.999924 -0.000119 0.000119 13.764937 -20.239737 -2.421127 139.999924
[Rope3_Seg04]
11 139.999924 0.000119 0.000000 5.767476 -15.223916 0.259429 139.999924
12 139.999924 0.000119 0.000000 15.124197 -15.705899 0.210117 139.999924
[Rope3_Seg05]
11 139.999924 -0.000238 0.000060 7.668820 -14.223174 4.280115 139.999924
12 139.999924 -0.000238 0.000060 24.915501 -21.831310 15.744939 139.999924
[Rope3_Seg06]
11 139.999893 -0.000119 -0.000060 11.447896 -23.720848 22.223564 139.999893
12 139.999893 -0.000119 -0.000060 12.635460 -11.475250 27.564150 139.999893
[Rope3_Seg07]
11 139.999771 0.000060 -0.000119 3.724107 -16.245451 28.443523 139.999771
12 139.999771 0.000060 -0.000119 3.053794 -2.146873 11.712394 139.999771
[Rope3_Seg08]
11 139.999985 -0.000060 0.000000 0.678040 -4.951220 10.193611 139.999985
12 139.999985 -0.000060 0.000000 1.312993 -0.730709 5.569756 139.999985
[Rope3_Seg09]
11 90.185997 -0.000179 -0.000060 68.943954 -1.359855 -0.847645 90.185997
12 90.185997 -0.000179 -0.000060 66.490051 -1.358715 -0.847284 90.185997
[R_rear_hand01]
11 103.366196 -6.073594 -10.757982 -158.916763 13.108895 -19.868313 104.101845
12 103.366196 -6.073594 -10.757982 -161.721191 16.852900 -30.680975 104.101845
[R_rear_hand02]
11 100.509819 12.039542 -7.992327 -36.772411 13.179006 19.981731 101.543350
12 100.509819 12.039542 -7.992327 -34.103237 19.623930 29.402824 101.543350
[R_rear_hand03]
11 101.539970 5.215704 5.435467 83.929695 -20.503988 5.995982 101.819031
12 101.539970 5.215704 5.435467 83.325722 -31.526073 7.364222 101.819031
[Rope4_Seg01]
11 -0.000016 -0.000052 -0.000153 46.836678 -46.685772 -95.543900 0.000162
12 -0.000016 -0.000050 -0.000153 61.045650 -42.263100 -118.251518 0.000161
[Rope4_Seg02]
11 139.999985 0.000060 0.000119 -0.133197 -0.247612 -1.684594 139.999985
12 139.999985 0.000060 0.000119 -0.257093 -0.777619 -1.228126 139.999985
[Rope4_Seg03]
11 139.999924 0.000000 -0.000238 -0.309344 -0.416814 -2.905619 139.999924
12 139.999924 0.000000 -0.000238 -0.517653 -1.333703 -2.134086 139.999924
[Rope4_Seg04]
11 139.999985 0.000000 0.000119 -1.121986 -0.979661 -7.090948 139.999985
12 139.999985 0.000000 0.000119 -1.613341 -3.273057 -5.362622 139.999985
[Rope4_Seg05]
11 139.999802 -0.000060 -0.000119 -38.727222 2.658138 -82.990051 139.999802
12 139.999802 -0.000060 -0.000119 -71.744324 -23.706280 -98.755157 139.999802
[Rope4_Seg06]
11 139.999924 0.000000 0.000060 -40.692364 2.483558 -64.174934 139.999924
12 139.999924 0.000000 0.000060 -41.319660 21.217054 -51.993450 139.999924
[Rope4_Seg07]
11 139.999802 0.000000 0.000000 -17.236195 6.248231 -24.342155 139.999802
12 139.999802 0.000000 0.000000 -3.484962 6.894681 -7.261535 139.999802
[Rope4_Seg08]
11 139.999924 0.000000 0.000119 -5.468604 4.435563 -4.720518 139.999924
12 139.999924 0.000000 0.000119 -2.415996 2.806751 -2.135921 139.999924
[Rope4_Seg09]
11 90.185791 0.000060 0.000060 -153.878510 2.228444 0.848798 90.185791
12 90.185791 0.000060 0.000060 -156.284821 2.230771 0.849210 90.185791
[L_rear_hand01]
11 101.696655 -8.392275 -7.654577 -28.485670 -27.460903 136.618759 102.329041
12 101.696655 -8.392275 -7.654577 -18.227737 -34.807476 116.961021 102.329041
[L_rear_hand02]
11 102.726799 -1.568258 5.773216 81.736328 46.408432 170.132355 102.900848
12 102.726799 -1.568258 5.773216 76.732224 64.420486 164.128403 102.900848
[L_rear_hand03]
11 104.552910 9.721220 -10.420293 -166.697159 -20.962837 -134.055527 105.519653
12 104.552910 9.721220 -10.420293 -174.245605 -24.028542 -114.495811 105.519653
